<!-- <?xml version="1.0" encoding="utf-8"?>
<!DOCTYPE svg PUBLIC "-//W3C//DTD SVG 1.1//EN" "http://www.w3.org/Graphics/SVG/1.1/DTD/svg11.dtd">
<svg version="1.1" id="Warstwa_1" xmlns="http://www.w3.org/2000/svg" xmlns:xlink="http://www.w3.org/1999/xlink" x="0px" y="0px"
	 width="707.1px" height="200px" viewBox="0 0 707.1 200" enable-background="new 0 0 707.1 200" xml:space="preserve">
<polygon fill="#ED1C24" points="0,150 0,50 86.6,0 173.2,50 173.2,150 86.6,200 "/>
<polygon fill="#FFFFFF" points="86.6,133.3 57.7,116.7 57.7,83.3 86.6,66.7 115.5,83.3 144.3,66.7 86.6,33.3 28.9,66.7 28.9,133.3 
	86.6,166.7 144.3,133.3 115.5,116.7 "/>
<polygon opacity="0.04" stroke="#FFFFFF" stroke-miterlimit="10" enable-background="new    " points="0,50 86.6,100 86.6,0 "/>
<polygon opacity="0.04" stroke="#FFFFFF" stroke-miterlimit="10" enable-background="new    " points="0,150 86.6,200 86.6,100 "/>
<polygon opacity="0.08" stroke="#FFFFFF" stroke-miterlimit="10" enable-background="new    " points="86.6,100 173.2,150 173.2,50 
	"/>
<polygon fill-opacity="0" points="86.6,100 0,50 0,150 "/>
<polygon opacity="0.08" stroke="#FFFFFF" stroke-miterlimit="10" enable-background="new    " points="173.2,150 86.6,100 86.6,200 
	"/>
<polygon opacity="0.08" stroke="#FFFFFF" stroke-miterlimit="10" enable-background="new    " points="173.2,50 86.6,0 86.6,100 "/>
<g>
	<path fill="#333333" d="M290.4,127.3c1,0,1.8,0.4,2.6,1.1l7.2,7.8c-4,4.9-8.8,8.7-14.6,11.3c-5.8,2.6-12.7,3.9-20.8,3.9
		c-7.2,0-13.8-1.2-19.5-3.7c-5.8-2.5-10.7-5.9-14.8-10.3c-4.1-4.4-7.2-9.7-9.4-15.8c-2.2-6.1-3.3-12.8-3.3-20
		c0-7.3,1.2-14.1,3.6-20.1c2.4-6.1,5.8-11.4,10.3-15.8c4.4-4.4,9.7-7.8,15.8-10.3s12.9-3.7,20.4-3.7c7.2,0,13.6,1.2,19,3.5
		s10.1,5.4,13.9,9.2l-6.1,8.4c-0.4,0.5-0.8,1-1.4,1.4s-1.3,0.6-2.3,0.6s-2.1-0.4-3.2-1.2s-2.5-1.7-4.1-2.6c-1.7-0.9-3.8-1.8-6.3-2.6
		c-2.5-0.8-5.8-1.2-9.7-1.2c-4.6,0-8.8,0.8-12.7,2.4c-3.8,1.6-7.2,3.9-9.9,6.9s-4.9,6.6-6.5,10.8c-1.6,4.3-2.3,9-2.3,14.3
		c0,5.5,0.8,10.4,2.3,14.6c1.6,4.3,3.7,7.9,6.3,10.8c2.7,2.9,5.8,5.2,9.4,6.7c3.6,1.6,7.5,2.3,11.6,2.3c2.5,0,4.7-0.1,6.7-0.4
		c2-0.3,3.8-0.7,5.5-1.3s3.3-1.3,4.8-2.3c1.5-0.9,3-2.1,4.5-3.4c0.4-0.4,0.9-0.7,1.4-1C289.3,127.4,289.9,127.3,290.4,127.3z"/>
	<path fill="#333333" d="M407.5,101.5c0,7.2-1.2,13.8-3.6,19.9s-5.7,11.4-10.1,15.8c-4.3,4.5-9.5,7.9-15.6,10.4s-12.8,3.7-20.2,3.7
		c-7.4,0-14.1-1.2-20.2-3.7s-11.3-6-15.7-10.4c-4.3-4.5-7.7-9.7-10.1-15.8c-2.4-6.1-3.6-12.7-3.6-19.9c0-7.2,1.2-13.8,3.6-19.9
		s5.7-11.4,10.1-15.8c4.3-4.5,9.6-7.9,15.7-10.4s12.8-3.7,20.2-3.7c7.4,0,14.1,1.3,20.2,3.8s11.3,6,15.6,10.4
		c4.3,4.4,7.7,9.7,10.1,15.8C406.3,87.7,407.5,94.3,407.5,101.5z M388.9,101.5c0-5.4-0.7-10.2-2.1-14.4c-1.4-4.3-3.5-7.9-6.1-10.8
		c-2.7-3-5.9-5.2-9.7-6.8c-3.8-1.6-8.1-2.4-12.9-2.4s-9.1,0.8-12.9,2.4s-7.1,3.8-9.8,6.8c-2.7,3-4.7,6.6-6.2,10.8
		c-1.4,4.3-2.2,9.1-2.2,14.4c0,5.4,0.7,10.2,2.2,14.4c1.4,4.3,3.5,7.9,6.2,10.8s5.9,5.2,9.8,6.8c3.8,1.6,8.1,2.4,12.9,2.4
		s9.1-0.8,12.9-2.4c3.8-1.6,7-3.8,9.7-6.8c2.7-2.9,4.7-6.5,6.1-10.8C388.2,111.7,388.9,106.9,388.9,101.5z"/>
	<path fill="#333333" d="M440.6,112.2v38.1h-18.2V52.7h29.8c6.7,0,12.4,0.7,17.1,2.1c4.7,1.4,8.6,3.3,11.7,5.8
		c3,2.5,5.3,5.4,6.7,8.9c1.4,3.4,2.1,7.2,2.1,11.4c0,3.3-0.5,6.4-1.5,9.3s-2.4,5.6-4.2,8c-1.8,2.4-4.1,4.5-6.8,6.3
		c-2.7,1.8-5.7,3.2-9.1,4.3c2.3,1.3,4.3,3.2,5.9,5.6l24.4,36h-16.3c-1.6,0-2.9-0.3-4-0.9c-1.1-0.6-2-1.5-2.8-2.7l-20.5-31.3
		c-0.8-1.2-1.6-2-2.5-2.5s-2.3-0.7-4.1-0.7h-7.7V112.2z M440.6,99.1h11.3c3.4,0,6.4-0.4,8.9-1.3s4.6-2,6.3-3.5
		c1.6-1.5,2.9-3.3,3.7-5.4c0.8-2.1,1.2-4.3,1.2-6.8c0-4.9-1.6-8.8-4.9-11.4c-3.3-2.7-8.2-4-15-4h-11.6v32.4H440.6z"/>
	<path fill="#333333" d="M571.8,52.7v14.4h-43.3v27.1h34.1v14h-34.1v27.6h43.3v14.5h-61.6V52.7H571.8z"/>
	<path fill="#ED1C24" d="M626.8,135.7c3.5,0,6.6-0.6,9.4-1.8c2.8-1.2,5.1-2.8,7-4.9c1.9-2.1,3.4-4.7,4.4-7.7s1.5-6.4,1.5-10.1V52.7
		h18.2v58.5c0,5.8-0.9,11.2-2.8,16.1c-1.9,4.9-4.6,9.2-8.1,12.8c-3.5,3.6-7.8,6.4-12.8,8.4s-10.6,3-16.9,3s-11.9-1-16.9-3
		s-9.2-4.8-12.7-8.4c-3.5-3.6-6.2-7.8-8-12.8c-1.9-4.9-2.8-10.3-2.8-16.1V52.7h18.2v58.4c0,3.7,0.5,7.1,1.5,10.1s2.5,5.6,4.4,7.7
		s4.2,3.8,7,5C620.1,135.1,623.3,135.7,626.8,135.7z"/>
	<path fill="#ED1C24" d="M706.2,150.3H688V52.7h18.2V150.3z"/>
</g>
</svg> -->

<?xml version="1.0" standalone="no"?>
<!DOCTYPE svg PUBLIC "-//W3C//DTD SVG 20010904//EN"
 "http://www.w3.org/TR/2001/REC-SVG-20010904/DTD/svg10.dtd">
<svg version="1.0" xmlns="http://www.w3.org/2000/svg"
 width="174.000000pt" height="200.000000pt" viewBox="0 0 174.000000 200.000000"
 preserveAspectRatio="xMidYMid meet">
<metadata>
Created by potrace 1.15, written by Peter Selinger 2001-2017
</metadata>
<g transform="translate(0.000000,200.000000) scale(0.100000,-0.100000)"
fill="#000000" stroke="none">
<path d="M790 1973 c3 -46 1 -53 -17 -53 -10 0 -25 -5 -33 -11 -11 -8 -7 -10
20 -6 40 5 63 -1 54 -14 -3 -5 -1 -9 4 -9 6 0 12 6 15 14 8 21 143 21 151 0 4
-12 2 -12 -14 -4 -16 9 -18 8 -13 -6 4 -12 2 -15 -8 -12 -8 3 -13 12 -11 19 2
8 -8 3 -22 -10 -27 -26 -36 -42 -12 -22 11 10 16 8 21 -9 5 -17 13 -21 33 -17
25 5 25 4 8 -9 -17 -12 -15 -14 25 -21 39 -6 41 -8 19 -14 -14 -4 -18 -7 -9
-8 22 -1 136 -58 144 -71 13 -22 -12 -35 -41 -21 l-27 12 17 -26 c17 -26 17
-27 -3 -32 -12 -3 -21 -11 -21 -18 0 -7 -4 -15 -9 -17 -5 -2 -6 -30 -3 -63 7
-56 9 -60 35 -63 19 -2 27 1 27 12 0 9 -4 16 -10 16 -17 0 -11 58 7 69 14 7
15 12 5 24 -16 19 -12 69 6 62 7 -3 20 2 29 10 8 8 19 12 25 9 6 -4 8 1 3 15
-4 12 -2 21 4 21 6 0 11 -7 11 -16 0 -12 5 -14 18 -8 9 4 31 7 47 7 90 -3 105
-5 110 -14 4 -5 11 -9 17 -9 6 0 3 9 -6 19 -12 13 -14 21 -6 26 14 9 16 7 35
-38 10 -23 11 -37 5 -37 -6 0 -8 -4 -5 -10 10 -16 22 -12 28 10 3 10 -1 24 -9
31 -23 19 -16 28 16 19 36 -10 66 -43 125 -136 59 -93 92 -178 111 -289 19
-107 14 -258 -11 -325 -9 -25 -22 -69 -29 -98 -21 -82 -39 -86 -38 -7 1 25 -3
45 -8 45 -13 0 -90 -120 -90 -140 0 -9 -7 -25 -15 -36 -13 -18 -14 -16 -15 27
0 38 4 48 20 52 11 3 20 10 20 16 0 6 -9 11 -20 11 -19 0 -20 7 -20 143 0 78
-3 173 -7 211 -5 57 -4 68 8 64 19 -6 55 -71 76 -135 9 -29 21 -53 26 -53 10
0 4 186 -6 196 -10 10 -289 44 -366 44 l-73 0 4 -34 4 -34 -38 32 c-21 18 -43
34 -50 35 -56 9 -400 11 -540 2 -269 -17 -370 -31 -390 -53 -11 -13 -18 -14
-21 -6 -8 25 -37 -101 -37 -163 0 -39 -4 -59 -9 -54 -11 11 -18 205 -9 220 3
6 4 20 3 33 -1 12 2 22 7 22 4 0 8 5 8 10 0 6 -8 10 -17 10 -15 0 -16 2 -3 10
12 8 11 10 -7 10 -18 0 -23 -6 -24 -27 -1 -16 -1 -31 0 -35 0 -5 -4 -8 -9 -8
-9 0 -8 -264 1 -307 3 -13 45 -26 59 -18 5 3 14 -4 20 -16 7 -12 8 -19 2 -15
-14 9 -24 -42 -12 -62 8 -13 9 -11 5 13 -3 19 3 11 16 -22 12 -29 25 -50 30
-48 4 3 20 -11 36 -31 15 -20 45 -56 66 -81 20 -24 37 -50 37 -58 0 -7 6 -15
13 -18 8 -3 39 -24 70 -47 54 -40 65 -60 58 -103 -1 -4 10 -13 24 -19 27 -12
31 -23 13 -34 -6 -4 -8 -3 -4 4 3 6 2 13 -3 16 -5 4 -8 -2 -6 -11 2 -10 4 -23
4 -29 1 -10 68 -44 89 -44 7 0 12 5 12 11 0 5 4 8 10 4 5 -3 7 -11 4 -18 -7
-20 30 -36 146 -59 97 -20 112 -21 121 -8 8 11 12 12 16 3 3 -9 27 -13 69 -13
58 0 66 2 74 23 7 17 9 18 9 5 1 -10 8 -18 16 -18 8 0 15 8 16 18 0 12 2 13 6
3 3 -8 -2 -20 -13 -28 -10 -7 -13 -13 -8 -13 16 0 34 22 35 44 1 17 2 18 6 4
5 -18 33 -26 33 -9 0 5 8 7 19 4 20 -5 181 55 181 68 0 4 -4 11 -10 14 -5 3
-10 14 -9 23 0 13 3 12 11 -5 12 -24 32 -30 43 -13 4 6 14 10 23 8 22 -3 64
20 57 32 -3 5 -1 11 5 15 17 10 11 25 -10 25 -11 0 -20 1 -20 3 0 2 44 48 97
103 54 54 88 86 76 69 -11 -16 -52 -60 -91 -97 -39 -38 -67 -68 -62 -68 14 0
181 180 175 190 -8 14 25 61 38 53 6 -3 7 -1 3 5 -4 6 0 24 9 39 9 16 14 20
11 10 -4 -11 -2 -16 5 -12 6 4 8 13 5 20 -2 7 6 41 18 75 13 37 26 57 29 49 4
-9 6 -10 6 -1 1 6 9 12 19 13 11 1 9 4 -8 9 -22 7 -23 8 -4 9 12 1 26 7 31 14
5 6 10 68 12 136 3 111 1 123 -13 118 -9 -4 -16 -2 -16 2 0 5 7 11 14 14 13 5
15 26 7 90 -1 5 -11 5 -22 2 -13 -4 -19 -3 -16 2 4 6 -5 46 -18 89 -20 66 -22
80 -10 87 11 6 12 14 5 33 -14 36 -12 43 5 14 16 -28 21 -19 5 10 -6 12 -19
17 -35 15 -20 -2 -23 1 -14 11 15 18 1 36 -22 29 -24 -8 -25 8 -2 26 9 8 15
10 12 4 -3 -5 5 -20 18 -32 29 -28 30 -21 2 16 -14 19 -29 28 -44 27 -17 -2
-21 1 -17 16 3 11 -1 18 -10 18 -7 0 -14 9 -15 20 -1 13 2 18 10 13 7 -3 3 3
-7 15 -20 23 -32 30 -21 12 3 -5 1 -10 -4 -10 -10 0 -15 13 -13 31 1 3 -13 19
-30 35 -17 16 -28 24 -25 18 3 -5 -7 -15 -24 -21 -16 -6 -29 -7 -29 -2 0 5 5
9 10 9 6 0 10 5 10 11 0 5 -4 7 -10 4 -6 -3 -7 1 -4 9 3 9 11 13 18 9 6 -3 2
3 -8 15 -20 23 -32 29 -20 11 4 -8 -1 -9 -15 -4 -16 5 -27 1 -36 -12 -8 -10
-15 -13 -15 -6 0 6 5 15 10 18 19 12 10 25 -30 45 -22 11 -39 26 -37 33 1 6
-5 12 -13 12 -8 0 -14 -6 -12 -13 4 -21 -18 -52 -36 -51 -16 1 -16 2 1 6 11 3
17 14 17 34 0 16 1 32 3 37 1 4 -9 8 -23 9 -23 2 -24 2 -3 -5 l22 -7 -23 -11
c-19 -9 -23 -8 -22 5 2 26 -39 25 -52 -1 -10 -21 -10 -20 -5 8 4 29 2 32 -27
38 -18 3 -36 3 -41 0 -5 -3 -9 0 -9 5 0 6 -13 11 -29 11 -25 0 -30 -5 -34 -27
-4 -26 -4 -26 -6 5 -1 32 -2 32 -50 32 -30 0 -51 -5 -54 -12 -4 -10 -6 -10 -6
0 -1 6 -7 12 -15 12 -8 0 -17 -6 -19 -12 -4 -10 -6 -10 -6 0 -1 6 -13 12 -27
12 -22 0 -25 -4 -24 -27z m-142 -711 c9 -7 12 -61 10 -238 l-3 -229 -33 -5
c-18 -3 -33 -9 -32 -15 0 -14 340 -19 354 -5 7 7 1 10 -18 10 -59 0 -66 12
-66 115 l0 95 38 -2 c20 -1 73 0 118 2 l81 2 23 43 c21 39 25 42 36 27 15 -21
13 -24 64 77 37 75 43 82 53 65 6 -10 11 -35 12 -54 0 -29 4 -36 23 -38 21 -3
22 -8 22 -93 0 -91 -10 -112 -32 -64 -6 14 -17 25 -25 25 -17 0 -16 -2 4 -61
14 -39 21 -48 35 -43 20 6 23 -11 9 -49 -6 -16 -21 -28 -40 -32 -40 -9 -39
-23 1 -27 l33 -3 -51 -32 c-28 -18 -56 -33 -61 -33 -6 0 -13 17 -16 38 -4 35
-14 68 -43 137 -6 17 -15 40 -19 53 -3 12 -13 22 -22 22 -16 0 -16 -5 11 -75
8 -22 15 -52 16 -67 0 -15 16 -54 36 -88 37 -63 37 -63 92 -43 16 7 15 -2 -3
-38 -9 -16 -21 -29 -28 -27 -7 1 -27 -2 -46 -6 -32 -8 -33 -9 -28 -49 5 -34 1
-46 -20 -71 -18 -21 -23 -37 -20 -56 3 -14 2 -31 -2 -38 -17 -27 -116 -82
-151 -83 -55 -2 -58 -3 -74 -24 -15 -20 -15 -19 -16 6 0 14 -6 34 -14 44 -10
14 -11 25 -3 43 8 18 7 30 -7 54 -13 20 -15 32 -8 37 18 11 27 92 11 101 -20
13 -29 2 -30 -38 -2 -34 -2 -35 -6 -7 -6 39 -20 55 -49 55 -17 0 -24 6 -24 20
0 13 -7 20 -20 20 -13 0 -20 -7 -20 -19 0 -29 -17 -35 -46 -16 -14 9 -33 15
-43 13 -19 -3 -51 18 -51 34 0 5 -11 24 -24 41 -18 25 -25 49 -29 105 -2 41
-10 79 -17 85 -10 9 -11 9 -6 0 10 -18 -1 -16 -22 5 -10 9 -27 22 -38 28 -16
10 -19 27 -22 178 -3 108 -1 171 6 178 17 17 56 -30 101 -121 23 -44 46 -81
51 -81 6 0 10 15 11 33 3 87 6 163 7 175 2 13 50 16 70 4z m814 -311 l3 -149
-63 -7 c-35 -4 -65 -5 -66 -3 -4 5 13 272 18 285 3 6 22 14 43 16 21 2 43 4
50 5 9 2 13 -38 15 -147z m-620 -51 c2 -52 7 -103 12 -112 7 -16 1 -18 -77
-18 -95 0 -122 6 -108 24 5 6 11 48 13 94 3 45 7 84 9 87 9 8 134 31 141 26 4
-3 8 -49 10 -101z m-448 -97 c6 -14 -32 -17 -96 -7 -35 6 -36 7 -32 43 11 77
11 77 61 87 l48 9 7 -59 c4 -33 9 -65 12 -73z"/>
<path d="M605 1978 c-16 -6 -14 -7 8 -3 39 8 33 -1 -10 -15 -57 -19 -121 -49
-128 -60 -5 -8 -11 -8 -20 0 -10 8 -22 6 -47 -10 -18 -11 -28 -20 -23 -20 6 0
21 7 33 16 13 9 25 14 28 12 2 -3 -12 -13 -31 -24 -39 -21 -40 -23 -22 -49 14
-18 37 -14 37 8 0 7 11 13 25 13 14 1 38 10 53 20 15 10 32 17 39 16 6 -1 14
2 18 8 3 5 17 10 31 10 13 0 24 4 24 10 0 5 13 7 28 5 26 -3 28 -1 24 26 -2
16 -9 29 -16 29 -6 0 -6 4 3 9 18 12 -27 11 -54 -1z"/>
<path d="M332 1815 c-16 -18 -36 -20 -26 -2 4 6 -2 3 -14 -7 -23 -20 -30 -32
-12 -21 6 3 10 1 10 -4 0 -6 -4 -12 -10 -12 -5 -1 -14 -2 -19 -3 -5 0 -13 -5
-18 -10 -5 -5 -3 -6 5 -2 6 4 12 2 12 -3 0 -10 -13 -15 -31 -13 -3 1 -21 -15
-40 -36 -19 -20 -26 -30 -16 -23 10 8 17 9 17 3 0 -6 -4 -14 -10 -17 -15 -9
-12 -19 11 -33 20 -12 24 -10 53 24 17 21 41 49 54 63 12 14 20 31 17 39 -4
11 -2 12 7 4 10 -7 22 -2 47 18 32 27 32 29 13 39 -27 14 -34 13 -50 -4z"/>
<path d="M498 1633 c-16 -2 -28 -6 -28 -9 0 -11 32 -159 36 -165 2 -4 13 -5
24 -2 15 4 19 13 17 37 -2 26 2 32 21 34 12 2 29 14 38 27 13 21 14 28 2 52
-14 29 -45 37 -110 26z"/>
</g>
</svg>
